<mxfile host="www.draw.io" modified="2020-02-16T21:35:35.025Z" agent="Mozilla/5.0 (Windows NT 10.0; Win64; x64) AppleWebKit/537.36 (KHTML, like Gecko) Chrome/80.0.3987.106 Safari/537.36" etag="ejFO3m-aVWxudEaIsrFk" version="12.7.0" type="github">
  <diagram id="C5RBs43oDa-KdzZeNtuy" name="Page-1">
    <mxGraphModel dx="2249" dy="1931" grid="1" gridSize="10" guides="1" tooltips="1" connect="1" arrows="1" fold="1" page="1" pageScale="1" pageWidth="827" pageHeight="1169" math="0" shadow="0">
      <root>
        <mxCell id="WIyWlLk6GJQsqaUBKTNV-0"/>
        <mxCell id="WIyWlLk6GJQsqaUBKTNV-1" parent="WIyWlLk6GJQsqaUBKTNV-0"/>
        <mxCell id="VTgcKONW2tTMZrdR_sOT-6" value="Student" style="swimlane;fontStyle=0;childLayout=stackLayout;horizontal=1;startSize=26;fillColor=#e0e0e0;horizontalStack=0;resizeParent=1;resizeParentMax=0;resizeLast=0;collapsible=1;marginBottom=0;swimlaneFillColor=#ffffff;align=center;fontSize=14;" parent="WIyWlLk6GJQsqaUBKTNV-1" vertex="1">
          <mxGeometry x="-470" y="140" width="160" height="130" as="geometry">
            <mxRectangle x="-230" y="200" width="80" height="26" as="alternateBounds"/>
          </mxGeometry>
        </mxCell>
        <mxCell id="VTgcKONW2tTMZrdR_sOT-7" value="name" style="text;strokeColor=none;fillColor=none;spacingLeft=4;spacingRight=4;overflow=hidden;rotatable=0;points=[[0,0.5],[1,0.5]];portConstraint=eastwest;fontSize=12;" parent="VTgcKONW2tTMZrdR_sOT-6" vertex="1">
          <mxGeometry y="26" width="160" height="26" as="geometry"/>
        </mxCell>
        <mxCell id="VTgcKONW2tTMZrdR_sOT-8" value="pawprint" style="text;strokeColor=none;fillColor=none;spacingLeft=4;spacingRight=4;overflow=hidden;rotatable=0;points=[[0,0.5],[1,0.5]];portConstraint=eastwest;fontSize=12;" parent="VTgcKONW2tTMZrdR_sOT-6" vertex="1">
          <mxGeometry y="52" width="160" height="26" as="geometry"/>
        </mxCell>
        <mxCell id="KIunxE_E-_xM79Ky1OpO-7" value="password" style="text;strokeColor=none;fillColor=none;spacingLeft=4;spacingRight=4;overflow=hidden;rotatable=0;points=[[0,0.5],[1,0.5]];portConstraint=eastwest;fontSize=12;" vertex="1" parent="VTgcKONW2tTMZrdR_sOT-6">
          <mxGeometry y="78" width="160" height="26" as="geometry"/>
        </mxCell>
        <mxCell id="VTgcKONW2tTMZrdR_sOT-9" value="student_id" style="text;strokeColor=none;fillColor=none;spacingLeft=4;spacingRight=4;overflow=hidden;rotatable=0;points=[[0,0.5],[1,0.5]];portConstraint=eastwest;fontSize=12;" parent="VTgcKONW2tTMZrdR_sOT-6" vertex="1">
          <mxGeometry y="104" width="160" height="26" as="geometry"/>
        </mxCell>
        <mxCell id="VTgcKONW2tTMZrdR_sOT-10" value="TA" style="swimlane;fontStyle=0;childLayout=stackLayout;horizontal=1;startSize=26;fillColor=#e0e0e0;horizontalStack=0;resizeParent=1;resizeParentMax=0;resizeLast=0;collapsible=1;marginBottom=0;swimlaneFillColor=#ffffff;align=center;fontSize=14;" parent="WIyWlLk6GJQsqaUBKTNV-1" vertex="1">
          <mxGeometry x="-170" y="150" width="160" height="130" as="geometry"/>
        </mxCell>
        <mxCell id="VTgcKONW2tTMZrdR_sOT-11" value="assistant_id" style="text;strokeColor=none;fillColor=none;spacingLeft=4;spacingRight=4;overflow=hidden;rotatable=0;points=[[0,0.5],[1,0.5]];portConstraint=eastwest;fontSize=12;" parent="VTgcKONW2tTMZrdR_sOT-10" vertex="1">
          <mxGeometry y="26" width="160" height="26" as="geometry"/>
        </mxCell>
        <mxCell id="KIunxE_E-_xM79Ky1OpO-12" value="pawprint" style="text;strokeColor=none;fillColor=none;spacingLeft=4;spacingRight=4;overflow=hidden;rotatable=0;points=[[0,0.5],[1,0.5]];portConstraint=eastwest;fontSize=12;" vertex="1" parent="VTgcKONW2tTMZrdR_sOT-10">
          <mxGeometry y="52" width="160" height="26" as="geometry"/>
        </mxCell>
        <mxCell id="VTgcKONW2tTMZrdR_sOT-12" value="name" style="text;strokeColor=none;fillColor=none;spacingLeft=4;spacingRight=4;overflow=hidden;rotatable=0;points=[[0,0.5],[1,0.5]];portConstraint=eastwest;fontSize=12;" parent="VTgcKONW2tTMZrdR_sOT-10" vertex="1">
          <mxGeometry y="78" width="160" height="26" as="geometry"/>
        </mxCell>
        <mxCell id="VTgcKONW2tTMZrdR_sOT-13" value="password" style="text;strokeColor=none;fillColor=none;spacingLeft=4;spacingRight=4;overflow=hidden;rotatable=0;points=[[0,0.5],[1,0.5]];portConstraint=eastwest;fontSize=12;" parent="VTgcKONW2tTMZrdR_sOT-10" vertex="1">
          <mxGeometry y="104" width="160" height="26" as="geometry"/>
        </mxCell>
        <mxCell id="VTgcKONW2tTMZrdR_sOT-14" value="Course" style="swimlane;fontStyle=0;childLayout=stackLayout;horizontal=1;startSize=26;fillColor=#e0e0e0;horizontalStack=0;resizeParent=1;resizeParentMax=0;resizeLast=0;collapsible=1;marginBottom=0;swimlaneFillColor=#ffffff;align=center;fontSize=14;" parent="WIyWlLk6GJQsqaUBKTNV-1" vertex="1">
          <mxGeometry x="-460" y="530" width="160" height="130" as="geometry"/>
        </mxCell>
        <mxCell id="VTgcKONW2tTMZrdR_sOT-15" value="course_id" style="text;strokeColor=none;fillColor=none;spacingLeft=4;spacingRight=4;overflow=hidden;rotatable=0;points=[[0,0.5],[1,0.5]];portConstraint=eastwest;fontSize=12;" parent="VTgcKONW2tTMZrdR_sOT-14" vertex="1">
          <mxGeometry y="26" width="160" height="26" as="geometry"/>
        </mxCell>
        <mxCell id="VTgcKONW2tTMZrdR_sOT-16" value="name" style="text;strokeColor=none;fillColor=none;spacingLeft=4;spacingRight=4;overflow=hidden;rotatable=0;points=[[0,0.5],[1,0.5]];portConstraint=eastwest;fontSize=12;" parent="VTgcKONW2tTMZrdR_sOT-14" vertex="1">
          <mxGeometry y="52" width="160" height="26" as="geometry"/>
        </mxCell>
        <mxCell id="VTgcKONW2tTMZrdR_sOT-17" value="start_date" style="text;strokeColor=none;fillColor=none;spacingLeft=4;spacingRight=4;overflow=hidden;rotatable=0;points=[[0,0.5],[1,0.5]];portConstraint=eastwest;fontSize=12;" parent="VTgcKONW2tTMZrdR_sOT-14" vertex="1">
          <mxGeometry y="78" width="160" height="26" as="geometry"/>
        </mxCell>
        <mxCell id="KIunxE_E-_xM79Ky1OpO-17" value="end_date" style="text;strokeColor=none;fillColor=none;spacingLeft=4;spacingRight=4;overflow=hidden;rotatable=0;points=[[0,0.5],[1,0.5]];portConstraint=eastwest;fontSize=12;" vertex="1" parent="VTgcKONW2tTMZrdR_sOT-14">
          <mxGeometry y="104" width="160" height="26" as="geometry"/>
        </mxCell>
        <mxCell id="VTgcKONW2tTMZrdR_sOT-18" value="Assignment" style="swimlane;fontStyle=0;childLayout=stackLayout;horizontal=1;startSize=26;fillColor=#e0e0e0;horizontalStack=0;resizeParent=1;resizeParentMax=0;resizeLast=0;collapsible=1;marginBottom=0;swimlaneFillColor=#ffffff;align=center;fontSize=14;" parent="WIyWlLk6GJQsqaUBKTNV-1" vertex="1">
          <mxGeometry x="-220" y="418" width="160" height="208" as="geometry"/>
        </mxCell>
        <mxCell id="VTgcKONW2tTMZrdR_sOT-19" value="assignment_id" style="text;strokeColor=none;fillColor=none;spacingLeft=4;spacingRight=4;overflow=hidden;rotatable=0;points=[[0,0.5],[1,0.5]];portConstraint=eastwest;fontSize=12;" parent="VTgcKONW2tTMZrdR_sOT-18" vertex="1">
          <mxGeometry y="26" width="160" height="26" as="geometry"/>
        </mxCell>
        <mxCell id="VTgcKONW2tTMZrdR_sOT-20" value="name" style="text;strokeColor=none;fillColor=none;spacingLeft=4;spacingRight=4;overflow=hidden;rotatable=0;points=[[0,0.5],[1,0.5]];portConstraint=eastwest;fontSize=12;" parent="VTgcKONW2tTMZrdR_sOT-18" vertex="1">
          <mxGeometry y="52" width="160" height="26" as="geometry"/>
        </mxCell>
        <mxCell id="KIunxE_E-_xM79Ky1OpO-8" value="due_date" style="text;strokeColor=none;fillColor=none;spacingLeft=4;spacingRight=4;overflow=hidden;rotatable=0;points=[[0,0.5],[1,0.5]];portConstraint=eastwest;fontSize=12;" vertex="1" parent="VTgcKONW2tTMZrdR_sOT-18">
          <mxGeometry y="78" width="160" height="26" as="geometry"/>
        </mxCell>
        <mxCell id="KIunxE_E-_xM79Ky1OpO-9" value="date_submitted" style="text;strokeColor=none;fillColor=none;spacingLeft=4;spacingRight=4;overflow=hidden;rotatable=0;points=[[0,0.5],[1,0.5]];portConstraint=eastwest;fontSize=12;" vertex="1" parent="VTgcKONW2tTMZrdR_sOT-18">
          <mxGeometry y="104" width="160" height="26" as="geometry"/>
        </mxCell>
        <mxCell id="KIunxE_E-_xM79Ky1OpO-10" value="grade" style="text;strokeColor=none;fillColor=none;spacingLeft=4;spacingRight=4;overflow=hidden;rotatable=0;points=[[0,0.5],[1,0.5]];portConstraint=eastwest;fontSize=12;" vertex="1" parent="VTgcKONW2tTMZrdR_sOT-18">
          <mxGeometry y="130" width="160" height="26" as="geometry"/>
        </mxCell>
        <mxCell id="KIunxE_E-_xM79Ky1OpO-11" value="comment" style="text;strokeColor=none;fillColor=none;spacingLeft=4;spacingRight=4;overflow=hidden;rotatable=0;points=[[0,0.5],[1,0.5]];portConstraint=eastwest;fontSize=12;" vertex="1" parent="VTgcKONW2tTMZrdR_sOT-18">
          <mxGeometry y="156" width="160" height="26" as="geometry"/>
        </mxCell>
        <mxCell id="VTgcKONW2tTMZrdR_sOT-21" value="file_type" style="text;strokeColor=none;fillColor=none;spacingLeft=4;spacingRight=4;overflow=hidden;rotatable=0;points=[[0,0.5],[1,0.5]];portConstraint=eastwest;fontSize=12;" parent="VTgcKONW2tTMZrdR_sOT-18" vertex="1">
          <mxGeometry y="182" width="160" height="26" as="geometry"/>
        </mxCell>
        <mxCell id="VTgcKONW2tTMZrdR_sOT-22" value="Section" style="swimlane;fontStyle=0;childLayout=stackLayout;horizontal=1;startSize=26;fillColor=#e0e0e0;horizontalStack=0;resizeParent=1;resizeParentMax=0;resizeLast=0;collapsible=1;marginBottom=0;swimlaneFillColor=#ffffff;align=center;fontSize=14;" parent="WIyWlLk6GJQsqaUBKTNV-1" vertex="1">
          <mxGeometry x="-470" y="340" width="160" height="78" as="geometry"/>
        </mxCell>
        <mxCell id="VTgcKONW2tTMZrdR_sOT-23" value="section_num" style="text;strokeColor=none;fillColor=none;spacingLeft=4;spacingRight=4;overflow=hidden;rotatable=0;points=[[0,0.5],[1,0.5]];portConstraint=eastwest;fontSize=12;" parent="VTgcKONW2tTMZrdR_sOT-22" vertex="1">
          <mxGeometry y="26" width="160" height="26" as="geometry"/>
        </mxCell>
        <mxCell id="VTgcKONW2tTMZrdR_sOT-24" value="size" style="text;strokeColor=none;fillColor=none;spacingLeft=4;spacingRight=4;overflow=hidden;rotatable=0;points=[[0,0.5],[1,0.5]];portConstraint=eastwest;fontSize=12;" parent="VTgcKONW2tTMZrdR_sOT-22" vertex="1">
          <mxGeometry y="52" width="160" height="26" as="geometry"/>
        </mxCell>
        <mxCell id="KIunxE_E-_xM79Ky1OpO-44" style="edgeStyle=orthogonalEdgeStyle;rounded=0;orthogonalLoop=1;jettySize=auto;html=1;exitX=0.5;exitY=0;exitDx=0;exitDy=0;entryX=0.5;entryY=0.962;entryDx=0;entryDy=0;entryPerimeter=0;startArrow=ERoneToMany;startFill=0;endArrow=ERzeroToMany;endFill=1;" edge="1" parent="WIyWlLk6GJQsqaUBKTNV-1" source="VTgcKONW2tTMZrdR_sOT-26" target="VTgcKONW2tTMZrdR_sOT-21">
          <mxGeometry relative="1" as="geometry"/>
        </mxCell>
        <mxCell id="VTgcKONW2tTMZrdR_sOT-26" value="Instructor" style="swimlane;fontStyle=0;childLayout=stackLayout;horizontal=1;startSize=26;fillColor=#e0e0e0;horizontalStack=0;resizeParent=1;resizeParentMax=0;resizeLast=0;collapsible=1;marginBottom=0;swimlaneFillColor=#ffffff;align=center;fontSize=14;" parent="WIyWlLk6GJQsqaUBKTNV-1" vertex="1">
          <mxGeometry x="-220" y="690" width="160" height="104" as="geometry"/>
        </mxCell>
        <mxCell id="VTgcKONW2tTMZrdR_sOT-27" value="instructor_id" style="text;strokeColor=none;fillColor=none;spacingLeft=4;spacingRight=4;overflow=hidden;rotatable=0;points=[[0,0.5],[1,0.5]];portConstraint=eastwest;fontSize=12;" parent="VTgcKONW2tTMZrdR_sOT-26" vertex="1">
          <mxGeometry y="26" width="160" height="26" as="geometry"/>
        </mxCell>
        <mxCell id="VTgcKONW2tTMZrdR_sOT-28" value="name" style="text;strokeColor=none;fillColor=none;spacingLeft=4;spacingRight=4;overflow=hidden;rotatable=0;points=[[0,0.5],[1,0.5]];portConstraint=eastwest;fontSize=12;" parent="VTgcKONW2tTMZrdR_sOT-26" vertex="1">
          <mxGeometry y="52" width="160" height="26" as="geometry"/>
        </mxCell>
        <mxCell id="VTgcKONW2tTMZrdR_sOT-29" value="password" style="text;strokeColor=none;fillColor=none;spacingLeft=4;spacingRight=4;overflow=hidden;rotatable=0;points=[[0,0.5],[1,0.5]];portConstraint=eastwest;fontSize=12;" parent="VTgcKONW2tTMZrdR_sOT-26" vertex="1">
          <mxGeometry y="78" width="160" height="26" as="geometry"/>
        </mxCell>
        <mxCell id="VTgcKONW2tTMZrdR_sOT-30" value="&lt;font style=&quot;font-size: 24px&quot;&gt;ER Diagram&amp;nbsp;&lt;/font&gt;" style="rounded=0;whiteSpace=wrap;html=1;" parent="WIyWlLk6GJQsqaUBKTNV-1" vertex="1">
          <mxGeometry x="-160" y="-30" width="350" height="60" as="geometry"/>
        </mxCell>
        <mxCell id="VTgcKONW2tTMZrdR_sOT-31" value="Entity - Relationship Diagram for system of collecting and submitting assignments&amp;nbsp;" style="whiteSpace=wrap;html=1;align=center;" parent="WIyWlLk6GJQsqaUBKTNV-1" vertex="1">
          <mxGeometry x="-170" y="60" width="300" height="40" as="geometry"/>
        </mxCell>
        <mxCell id="KIunxE_E-_xM79Ky1OpO-47" style="edgeStyle=orthogonalEdgeStyle;rounded=0;orthogonalLoop=1;jettySize=auto;html=1;exitX=0;exitY=0.25;exitDx=0;exitDy=0;startArrow=ERoneToMany;startFill=0;endArrow=ERzeroToMany;endFill=1;" edge="1" parent="WIyWlLk6GJQsqaUBKTNV-1" source="KIunxE_E-_xM79Ky1OpO-13" target="VTgcKONW2tTMZrdR_sOT-26">
          <mxGeometry relative="1" as="geometry"/>
        </mxCell>
        <mxCell id="KIunxE_E-_xM79Ky1OpO-13" value="Admin" style="swimlane;fontStyle=0;childLayout=stackLayout;horizontal=1;startSize=26;fillColor=#e0e0e0;horizontalStack=0;resizeParent=1;resizeParentMax=0;resizeLast=0;collapsible=1;marginBottom=0;swimlaneFillColor=#ffffff;align=center;fontSize=14;" vertex="1" parent="WIyWlLk6GJQsqaUBKTNV-1">
          <mxGeometry x="20" y="690" width="160" height="78" as="geometry"/>
        </mxCell>
        <mxCell id="KIunxE_E-_xM79Ky1OpO-14" value="admin_id" style="text;strokeColor=none;fillColor=none;spacingLeft=4;spacingRight=4;overflow=hidden;rotatable=0;points=[[0,0.5],[1,0.5]];portConstraint=eastwest;fontSize=12;" vertex="1" parent="KIunxE_E-_xM79Ky1OpO-13">
          <mxGeometry y="26" width="160" height="26" as="geometry"/>
        </mxCell>
        <mxCell id="KIunxE_E-_xM79Ky1OpO-15" value="password" style="text;strokeColor=none;fillColor=none;spacingLeft=4;spacingRight=4;overflow=hidden;rotatable=0;points=[[0,0.5],[1,0.5]];portConstraint=eastwest;fontSize=12;" vertex="1" parent="KIunxE_E-_xM79Ky1OpO-13">
          <mxGeometry y="52" width="160" height="26" as="geometry"/>
        </mxCell>
        <mxCell id="KIunxE_E-_xM79Ky1OpO-20" style="edgeStyle=orthogonalEdgeStyle;rounded=0;orthogonalLoop=1;jettySize=auto;html=1;exitX=0;exitY=0.5;exitDx=0;exitDy=0;entryX=0;entryY=0.5;entryDx=0;entryDy=0;endArrow=ERoneToMany;endFill=0;startArrow=ERoneToMany;startFill=0;" edge="1" parent="WIyWlLk6GJQsqaUBKTNV-1" source="KIunxE_E-_xM79Ky1OpO-7" target="VTgcKONW2tTMZrdR_sOT-23">
          <mxGeometry relative="1" as="geometry"/>
        </mxCell>
        <mxCell id="KIunxE_E-_xM79Ky1OpO-21" value="is in" style="text;html=1;align=center;verticalAlign=middle;resizable=0;points=[];autosize=1;" vertex="1" parent="WIyWlLk6GJQsqaUBKTNV-1">
          <mxGeometry x="-530" y="230" width="40" height="20" as="geometry"/>
        </mxCell>
        <mxCell id="KIunxE_E-_xM79Ky1OpO-22" value="has" style="text;html=1;align=center;verticalAlign=middle;resizable=0;points=[];autosize=1;" vertex="1" parent="WIyWlLk6GJQsqaUBKTNV-1">
          <mxGeometry x="-525" y="362" width="30" height="20" as="geometry"/>
        </mxCell>
        <mxCell id="KIunxE_E-_xM79Ky1OpO-23" style="edgeStyle=orthogonalEdgeStyle;rounded=0;orthogonalLoop=1;jettySize=auto;html=1;exitX=0;exitY=0.5;exitDx=0;exitDy=0;startArrow=ERoneToMany;startFill=0;endArrow=ERmandOne;endFill=0;" edge="1" parent="WIyWlLk6GJQsqaUBKTNV-1" source="VTgcKONW2tTMZrdR_sOT-24" target="VTgcKONW2tTMZrdR_sOT-15">
          <mxGeometry relative="1" as="geometry"/>
        </mxCell>
        <mxCell id="KIunxE_E-_xM79Ky1OpO-24" value="has" style="text;html=1;align=center;verticalAlign=middle;resizable=0;points=[];autosize=1;" vertex="1" parent="WIyWlLk6GJQsqaUBKTNV-1">
          <mxGeometry x="-520" y="550" width="30" height="20" as="geometry"/>
        </mxCell>
        <mxCell id="KIunxE_E-_xM79Ky1OpO-25" value="of" style="text;html=1;align=center;verticalAlign=middle;resizable=0;points=[];autosize=1;" vertex="1" parent="WIyWlLk6GJQsqaUBKTNV-1">
          <mxGeometry x="-525" y="404" width="30" height="20" as="geometry"/>
        </mxCell>
        <mxCell id="KIunxE_E-_xM79Ky1OpO-26" style="edgeStyle=orthogonalEdgeStyle;rounded=0;orthogonalLoop=1;jettySize=auto;html=1;exitX=0;exitY=0.5;exitDx=0;exitDy=0;entryX=1;entryY=0.5;entryDx=0;entryDy=0;startArrow=ERoneToMany;startFill=0;endArrow=ERoneToMany;endFill=0;" edge="1" parent="WIyWlLk6GJQsqaUBKTNV-1" source="KIunxE_E-_xM79Ky1OpO-12" target="VTgcKONW2tTMZrdR_sOT-23">
          <mxGeometry relative="1" as="geometry"/>
        </mxCell>
        <mxCell id="KIunxE_E-_xM79Ky1OpO-27" value="manages" style="text;html=1;align=center;verticalAlign=middle;resizable=0;points=[];autosize=1;" vertex="1" parent="WIyWlLk6GJQsqaUBKTNV-1">
          <mxGeometry x="-250" y="190" width="60" height="20" as="geometry"/>
        </mxCell>
        <mxCell id="KIunxE_E-_xM79Ky1OpO-28" value="has" style="text;html=1;align=center;verticalAlign=middle;resizable=0;points=[];autosize=1;" vertex="1" parent="WIyWlLk6GJQsqaUBKTNV-1">
          <mxGeometry x="-300" y="378" width="30" height="20" as="geometry"/>
        </mxCell>
        <mxCell id="KIunxE_E-_xM79Ky1OpO-30" style="edgeStyle=orthogonalEdgeStyle;rounded=0;orthogonalLoop=1;jettySize=auto;html=1;exitX=1;exitY=0.5;exitDx=0;exitDy=0;entryX=0.125;entryY=0;entryDx=0;entryDy=0;entryPerimeter=0;startArrow=ERoneToMany;startFill=0;endArrow=ERzeroToMany;endFill=1;" edge="1" parent="WIyWlLk6GJQsqaUBKTNV-1" source="KIunxE_E-_xM79Ky1OpO-7" target="VTgcKONW2tTMZrdR_sOT-18">
          <mxGeometry relative="1" as="geometry"/>
        </mxCell>
        <mxCell id="KIunxE_E-_xM79Ky1OpO-31" value="submits" style="text;html=1;align=center;verticalAlign=middle;resizable=0;points=[];autosize=1;" vertex="1" parent="WIyWlLk6GJQsqaUBKTNV-1">
          <mxGeometry x="-310" y="210" width="60" height="20" as="geometry"/>
        </mxCell>
        <mxCell id="KIunxE_E-_xM79Ky1OpO-32" value="submitted by" style="text;html=1;align=center;verticalAlign=middle;resizable=0;points=[];autosize=1;" vertex="1" parent="WIyWlLk6GJQsqaUBKTNV-1">
          <mxGeometry x="-200" y="382" width="80" height="20" as="geometry"/>
        </mxCell>
        <mxCell id="KIunxE_E-_xM79Ky1OpO-33" style="edgeStyle=orthogonalEdgeStyle;rounded=0;orthogonalLoop=1;jettySize=auto;html=1;exitX=1;exitY=0.5;exitDx=0;exitDy=0;entryX=0;entryY=0.808;entryDx=0;entryDy=0;entryPerimeter=0;startArrow=ERoneToMany;startFill=0;endArrow=ERzeroToMany;endFill=1;" edge="1" parent="WIyWlLk6GJQsqaUBKTNV-1" source="VTgcKONW2tTMZrdR_sOT-15" target="KIunxE_E-_xM79Ky1OpO-10">
          <mxGeometry relative="1" as="geometry"/>
        </mxCell>
        <mxCell id="KIunxE_E-_xM79Ky1OpO-34" value="has" style="text;html=1;align=center;verticalAlign=middle;resizable=0;points=[];autosize=1;" vertex="1" parent="WIyWlLk6GJQsqaUBKTNV-1">
          <mxGeometry x="-295" y="550" width="30" height="20" as="geometry"/>
        </mxCell>
        <mxCell id="KIunxE_E-_xM79Ky1OpO-35" value="belongs to" style="text;html=1;align=center;verticalAlign=middle;resizable=0;points=[];autosize=1;" vertex="1" parent="WIyWlLk6GJQsqaUBKTNV-1">
          <mxGeometry x="-290" y="570" width="70" height="20" as="geometry"/>
        </mxCell>
        <mxCell id="KIunxE_E-_xM79Ky1OpO-38" style="edgeStyle=orthogonalEdgeStyle;rounded=0;orthogonalLoop=1;jettySize=auto;html=1;exitX=0;exitY=0.5;exitDx=0;exitDy=0;entryX=0.494;entryY=0.962;entryDx=0;entryDy=0;entryPerimeter=0;startArrow=ERmandOne;startFill=0;endArrow=ERoneToMany;endFill=0;" edge="1" parent="WIyWlLk6GJQsqaUBKTNV-1" source="VTgcKONW2tTMZrdR_sOT-27" target="KIunxE_E-_xM79Ky1OpO-17">
          <mxGeometry relative="1" as="geometry"/>
        </mxCell>
        <mxCell id="KIunxE_E-_xM79Ky1OpO-39" value="manages" style="text;html=1;align=center;verticalAlign=middle;resizable=0;points=[];autosize=1;" vertex="1" parent="WIyWlLk6GJQsqaUBKTNV-1">
          <mxGeometry x="-280" y="732" width="60" height="20" as="geometry"/>
        </mxCell>
        <mxCell id="KIunxE_E-_xM79Ky1OpO-40" value="belongs to" style="text;html=1;align=center;verticalAlign=middle;resizable=0;points=[];autosize=1;" vertex="1" parent="WIyWlLk6GJQsqaUBKTNV-1">
          <mxGeometry x="-380" y="670" width="70" height="20" as="geometry"/>
        </mxCell>
        <mxCell id="KIunxE_E-_xM79Ky1OpO-41" style="edgeStyle=orthogonalEdgeStyle;rounded=0;orthogonalLoop=1;jettySize=auto;html=1;exitX=0;exitY=0.5;exitDx=0;exitDy=0;entryX=0.819;entryY=-0.005;entryDx=0;entryDy=0;entryPerimeter=0;startArrow=ERoneToMany;startFill=0;endArrow=ERzeroToMany;endFill=1;" edge="1" parent="WIyWlLk6GJQsqaUBKTNV-1" source="VTgcKONW2tTMZrdR_sOT-13" target="VTgcKONW2tTMZrdR_sOT-18">
          <mxGeometry relative="1" as="geometry"/>
        </mxCell>
        <mxCell id="KIunxE_E-_xM79Ky1OpO-42" value="grades" style="text;html=1;align=center;verticalAlign=middle;resizable=0;points=[];autosize=1;" vertex="1" parent="WIyWlLk6GJQsqaUBKTNV-1">
          <mxGeometry x="-190" y="280" width="50" height="20" as="geometry"/>
        </mxCell>
        <mxCell id="KIunxE_E-_xM79Ky1OpO-43" value="graded by" style="text;html=1;align=center;verticalAlign=middle;resizable=0;points=[];autosize=1;" vertex="1" parent="WIyWlLk6GJQsqaUBKTNV-1">
          <mxGeometry x="-90" y="388" width="70" height="20" as="geometry"/>
        </mxCell>
        <mxCell id="KIunxE_E-_xM79Ky1OpO-45" value="creates" style="text;html=1;align=center;verticalAlign=middle;resizable=0;points=[];autosize=1;" vertex="1" parent="WIyWlLk6GJQsqaUBKTNV-1">
          <mxGeometry x="-140" y="636" width="50" height="20" as="geometry"/>
        </mxCell>
        <mxCell id="KIunxE_E-_xM79Ky1OpO-46" value="created by" style="text;html=1;align=center;verticalAlign=middle;resizable=0;points=[];autosize=1;" vertex="1" parent="WIyWlLk6GJQsqaUBKTNV-1">
          <mxGeometry x="-140" y="670" width="70" height="20" as="geometry"/>
        </mxCell>
        <mxCell id="KIunxE_E-_xM79Ky1OpO-48" value="manages" style="text;html=1;align=center;verticalAlign=middle;resizable=0;points=[];autosize=1;" vertex="1" parent="WIyWlLk6GJQsqaUBKTNV-1">
          <mxGeometry x="-40" y="690" width="60" height="20" as="geometry"/>
        </mxCell>
        <mxCell id="KIunxE_E-_xM79Ky1OpO-49" value="managed&lt;br&gt;by" style="text;html=1;align=center;verticalAlign=middle;resizable=0;points=[];autosize=1;" vertex="1" parent="WIyWlLk6GJQsqaUBKTNV-1">
          <mxGeometry x="-70" y="752" width="70" height="30" as="geometry"/>
        </mxCell>
        <mxCell id="KIunxE_E-_xM79Ky1OpO-50" value="Created by: Alex Webber" style="text;html=1;align=center;verticalAlign=middle;resizable=0;points=[];autosize=1;" vertex="1" parent="WIyWlLk6GJQsqaUBKTNV-1">
          <mxGeometry x="214" y="24" width="150" height="20" as="geometry"/>
        </mxCell>
        <mxCell id="KIunxE_E-_xM79Ky1OpO-51" value="Collaborators: Sarina Gaines and Thunnathorn&amp;nbsp;Synhiranakkrakul" style="text;html=1;align=center;verticalAlign=middle;resizable=0;points=[];autosize=1;" vertex="1" parent="WIyWlLk6GJQsqaUBKTNV-1">
          <mxGeometry x="214" y="44" width="360" height="20" as="geometry"/>
        </mxCell>
      </root>
    </mxGraphModel>
  </diagram>
</mxfile>
